/* XPM */
static char *_524512721235[] = {
/* columns rows colors chars-per-pixel */
"16 16 70 1 ",
"  c #007A0F",
". c #017C10",
"X c #068016",
"o c #009113",
"O c #009313",
"+ c #019214",
"@ c #009714",
"# c #009814",
"$ c #00A015",
"% c #00A616",
"& c #00A716",
"* c #00A916",
"= c #00AB17",
"- c #04A61A",
"; c #00B017",
": c #00B318",
"> c #01B319",
", c #00B518",
"< c #00B618",
"1 c #00B718",
"2 c #04B71C",
"3 c #01BA19",
"4 c #00BB19",
"5 c #01BC19",
"6 c #01BD1A",
"7 c #06BA1D",
"8 c #04BF1D",
"9 c #05BD1E",
"0 c #08B81F",
"q c #138222",
"w c #168825",
"e c #188F27",
"r c #1D9A2E",
"t c #0FAB23",
"y c #10A123",
"u c #1DAC2F",
"i c #07BF20",
"p c #08BC20",
"a c #0CBF23",
"s c #1BB12F",
"d c #13BA29",
"f c #22BD36",
"g c #2ABA3D",
"h c #01C11A",
"j c #01C31A",
"k c #01C41B",
"l c #01C51B",
"z c #02C51B",
"x c #00C61A",
"c c #01C61B",
"v c #01C71B",
"b c #01C71C",
"n c #02C61C",
"m c #03C61C",
"M c #03C61D",
"N c #04C61E",
"B c #07C420",
"V c #07C620",
"C c #0FC527",
"Z c #0DC726",
"A c #0EC627",
"S c #0EC826",
"D c #14C62B",
"F c #14C82C",
"G c #1BC431",
"H c #1FC635",
"J c #29C43D",
"K c #28C63D",
"L c #25C938",
"P c None",
/* pixels */
"PPPPPPPPPPPPPPPP",
"PPPPPPPPPPPsPPPP",
"PPPPPPPPPPG7PPPP",
"PtKPPPPPKDN3PPPP",
"Po8FPPP2Njc<PPPP",
"PP*cAPP8mcc-PPPP",
"PPP5cCfBcccdrPPP",
"PPgiccVmmj3+PPPP",
"qyimvcccc>.PPPPP",
"PP #%=jccaPPPPPP",
"PPPPPX*mcmAHPPPP",
"PPPPPPP5ccccSLPP",
"PPPePPP=j$%<<0uP",
"PPwPPPPo<PPPPPPP",
"PPPPPPPP@PPPPPPP",
"PPPPPPPPPPPPPPPP"
};
