/* XPM */
static char *_524512730404[] = {
/* columns rows colors chars-per-pixel */
"32 32 181 2 ",
"   c #004909",
".  c #004A0A",
"X  c #00550B",
"o  c #01550B",
"O  c #02540D",
"+  c #005D0C",
"@  c #03600F",
"#  c #00640D",
"$  c #00660D",
"%  c #00670D",
"&  c #00680D",
"*  c #00680E",
"=  c #006A0E",
"-  c #006B0E",
";  c #006D0E",
":  c #006F0F",
">  c #00710E",
",  c #00740F",
"<  c #026F10",
"1  c #057013",
"2  c #077415",
"3  c #097617",
"4  c #087717",
"5  c #007C10",
"6  c #007D10",
"7  c #057E15",
"8  c #0B7F1A",
"9  c #008111",
"0  c #008211",
"q  c #008311",
"w  c #008411",
"e  c #008611",
"r  c #008712",
"t  c #018613",
"y  c #008812",
"u  c #008D12",
"i  c #008D13",
"p  c #0F821E",
"a  c #0C871C",
"s  c #0B891B",
"d  c #0C8A1D",
"f  c #009012",
"g  c #009213",
"h  c #009413",
"j  c #009614",
"k  c #009814",
"l  c #009914",
"z  c #009F15",
"x  c #0D961F",
"c  c #059F19",
"v  c #00A315",
"b  c #02A117",
"n  c #00A316",
"m  c #00A416",
"M  c #00A616",
"N  c #00A816",
"B  c #01A917",
"V  c #00AC17",
"C  c #00AD17",
"Z  c #00AF17",
"A  c #06A41B",
"S  c #01AF18",
"D  c #07AA1C",
"F  c #08AD1D",
"G  c #00B017",
"H  c #00B218",
"J  c #00B418",
"K  c #00B518",
"L  c #00B618",
"P  c #00B718",
"I  c #00B818",
"U  c #00B819",
"Y  c #00B919",
"T  c #00BA19",
"R  c #02B81A",
"E  c #00BC19",
"W  c #00BD19",
"Q  c #00BE19",
"!  c #05BA1D",
"~  c #03BE1C",
"^  c #148F24",
"/  c #0F9921",
"(  c #149725",
")  c #1A9A2A",
"_  c #199F2A",
"`  c #1B9B2C",
"'  c #1E9A2E",
"]  c #1D9F2E",
"[  c #17AF2B",
"{  c #0BB521",
"}  c #1AB42E",
"|  c #15B92B",
" . c #11BE28",
".. c #1BB82F",
"X. c #1EB131",
"o. c #1FBE33",
"O. c #20A331",
"+. c #22A133",
"@. c #23A434",
"#. c #28AF39",
"$. c #2AAE3C",
"%. c #2DAF3E",
"&. c #2BB83B",
"*. c #01C01A",
"=. c #00C21A",
"-. c #01C21A",
";. c #01C31A",
":. c #00C41A",
">. c #01C41A",
",. c #00C51A",
"<. c #01C41B",
"1. c #01C51B",
"2. c #00C61A",
"3. c #01C61B",
"4. c #03C21C",
"5. c #02C61C",
"6. c #03C61C",
"7. c #02C71C",
"8. c #03C61D",
"9. c #04C51D",
"0. c #05C71F",
"q. c #06C71F",
"w. c #07C720",
"e. c #07C721",
"r. c #08C721",
"t. c #09C622",
"y. c #09C722",
"u. c #0AC723",
"i. c #0FC226",
"p. c #08C821",
"a. c #09C822",
"s. c #0AC823",
"d. c #0CC825",
"f. c #10C728",
"g. c #12C62A",
"h. c #12C72A",
"j. c #15C22C",
"k. c #18C72F",
"l. c #14CA2B",
"z. c #15C92D",
"x. c #14CA2C",
"c. c #18C930",
"v. c #19CA30",
"b. c #1CC933",
"n. c #1CCA33",
"m. c #1DC934",
"M. c #22C437",
"N. c #24C339",
"B. c #25C33A",
"V. c #23C538",
"C. c #25C43A",
"Z. c #2AC03D",
"A. c #2CC23F",
"S. c #22CA38",
"D. c #36AC45",
"F. c #33B344",
"G. c #39B64A",
"H. c #38BC49",
"J. c #3ABC4B",
"K. c #41BB51",
"L. c #40BC51",
"P. c #42BE53",
"I. c #46BB55",
"U. c #49BF59",
"Y. c #4CBF5B",
"T. c #2BCB40",
"R. c #2FC940",
"E. c #2CCA41",
"W. c #2FCA43",
"Q. c #30C744",
"!. c #32C745",
"~. c #32C945",
"^. c #32CA46",
"/. c #33CA47",
"(. c #39C84B",
"). c #3FC84D",
"_. c #3FC751",
"`. c #3FC951",
"'. c #43C053",
"]. c #47C357",
"[. c None",
/* pixels */
"[.[.[.[.[.[.[.[.[.[.[.[.[.[.[.[.[.[.[.[.[.[.[.[.[.[.[.[.[.[.[.[.",
"[.[.[.[.[.[.[.[.[.[.[.[.[.[.[.[.[.[.[.[.[.[.[.[.[.[.[.[.[.[.[.[.",
"[.[.[.[.[.[.[.[.[.[.[.[.[.[.[.[.[.[.[.[.[.[.[.X.[.[.[.[.[.[.[.[.",
"[.[.[.[.[.[.[.[.[.[.[.[.[.[.[.[.[.[.[.[.[.D.B.A [.[.[.[.[.[.[.[.",
"[.( $.[.[.[.[.[.[.[.[.[.[.[.[.[.[.[.[.[.J.C.y.m [.[.[.[.[.[.[.[.",
"[.[.} [.[.[.[.[.[.[.[.[.[.[.[.[.[.[.[.H.b.q.3.S [.[.[.[.[.[.[.[.",
"[.[.c C.'.[.[.[.[.[.[.[.[.[.[.[.[.I.Q.z.5.3.3.Z [.[.[.[.[.[.[.[.",
"[.[.9 ! v.W.`.[.[.[.[.[.[.[.[.o.W.b.w.5.3.3.3.Z [.[.[.[.[.[.[.[.",
"[.[.[.v 3.5.l.~.[.[.[.[.[.[.[.~ 5.-.5.-.5.-.-.Z [.[.[.[.[.[.[.[.",
"[.[.[.9 Y 3.3.d.T.[.[.[.[.[.b 4.5.3.3.3.3.3.3.v [.[.[.[.[.[.[.[.",
"[.[.[.[.z 3.3.-.w.M.[.[.[.[.D 9.3.3.5.3.3.-.E u [.[.[.[.[.[.[.[.",
"[.[.[.[.6 P 3.3.3.a.B.[.[.[.{ 5.3.3.-.3.3.5.B : [.[.[.[.[.[.[.[.",
"[.[.[.[.[.k -.3.3.3.y.V.[.[.i.5.-.3.-.5.3.3. .G.L.' [.[.[.[.[.[.",
"[.[.[.[.[.1 Z 3.5.-.3.y.A.Z.y.3.5.3.3.3.-.3.y.j./ [.[.[.[.[.[.[.",
"[.[.[.[.[.[.F 3.3.5.3.5.y.y.5.3.5.-.-.5.3.3.P e [.[.[.[.[.[.[.[.",
"[.[.].].`.!.g.3.3.-.3.-.3.3.3.-.3.3.3.3.3.H 6 [.[.[.[.[.[.[.[.[.",
"p ) } g.a.q.5.3.5.-.3.-.5.-.5.-.3.3.-.P h < [.[.[.[.[.[.[.[.[.[.",
"[.[.* g P -.3.3.3.3.3.3.3.3.3.3.-.5.-.y . [.[.[.[.[.[.[.[.[.[.[.",
"[.[.[.[.* i Z E -.3.3.3.3.-.3.3.3.5.q.[ [.[.[.[.[.[.[.[.[.[.[.[.",
"[.[.[.[.[.[.+ , e g j m -.5.-.3.-.-.3.k.(.].[.[.[.[.[.[.[.[.[.[.",
"[.[.[.[.[.[.[.[.[.[.O t v -.3.3.5.3.5.5.y.b.~.L.[.[.[.[.[.[.[.[.",
"[.[.[.[.[.[.[.[.[.[.[ 7 : H 3.3.-.3.-.3.3.3.q.c.~.K.[.[.[.[.[.[.",
"[.[.[.[.[.[.[.[.[.+.p [.[.k 3.3.5.-.5.3.3.5.3.3.e.S.).[.[.[.[.[.",
"[.[.[.[.[.[.[.[.@.a [.[.[.5 J 5.3.3.3.3.3.-.3.-.5.5.l.W.[.[.[.[.",
"[.[.[.[.[.[.[.@.8 [.[.[.[.[.z -.3.3.Y P -.3.3.3.3.3.5.g.&.[.[.[.",
"[.[.[.[.[.[.' 2 [.[.[.[.[.[.9 Y 3.E 9 * e l B G P P Y Y | #.[.[.",
"[.[.[.[.%.^ @ [.[.[.[.[.[.[.[.v 3.Y 9 [.[.. X + # $ * $ $ 1 4 [.",
"[.[.F.[ 4 [.[.[.[.[.[.[.[.[.[.e E J [.[.[.[.[.[.[.[.[.[.[.[.[.[.",
"[.x s X [.[.[.[.[.[.[.[.[.[.[.[.m Z [.[.[.[.[.[.[.[.[.[.[.[.[.[.",
"[.[.[.[.[.[.[.[.[.[.[.[.[.[.[.[.y j [.[.[.[.[.[.[.[.[.[.[.[.[.[.",
"[.[.[.[.[.[.[.[.[.[.[.[.[.[.[.[.[.: [.[.[.[.[.[.[.[.[.[.[.[.[.[.",
"[.[.[.[.[.[.[.[.[.[.[.[.[.[.[.[.[.[.[.[.[.[.[.[.[.[.[.[.[.[.[.[."
};
