/* XPM */
static char *_524512736905[] = {
/* columns rows colors chars-per-pixel */
"64 64 119 2 ",
"   c #003907",
".  c #003D08",
"X  c #004209",
"o  c #004B0A",
"O  c #00540B",
"+  c #005B0C",
"@  c #00640D",
"#  c #006C0E",
"$  c #00720F",
"%  c #007610",
"&  c #007B11",
"*  c #018412",
"=  c #018B13",
"-  c #098C1B",
";  c #009313",
":  c #009B14",
">  c #079219",
",  c #0A921C",
"<  c #0A981D",
"1  c #00A315",
"2  c #00AC17",
"3  c #03A519",
"4  c #09A21E",
"5  c #04AB1A",
"6  c #00B117",
"7  c #00B518",
"8  c #08B11E",
"9  c #00BC19",
"0  c #0D9D20",
"q  c #119423",
"w  c #169A27",
"e  c #1E9E2F",
"r  c #219C32",
"t  c #2B9C3A",
"y  c #249533",
"u  c #309D3E",
"i  c #0EA421",
"p  c #11A524",
"a  c #12AB26",
"s  c #1DA52E",
"d  c #17AB2A",
"f  c #1BAA2E",
"g  c #0BBD22",
"h  c #1AB62F",
"j  c #17BC2D",
"k  c #1EAB30",
"l  c #1EB632",
"z  c #23AF36",
"x  c #2EA03D",
"c  c #26AE38",
"v  c #2BAF3C",
"b  c #30A13F",
"n  c #30AA3F",
"m  c #22B935",
"M  c #2CB63C",
"N  c #2ABA3D",
"B  c #01C51B",
"V  c #06C81F",
"C  c #07C620",
"Z  c #0CC224",
"A  c #07C820",
"S  c #0BC824",
"D  c #0FC628",
"F  c #0FC928",
"G  c #16C52D",
"H  c #19C02F",
"J  c #13CA2B",
"K  c #18CC2F",
"L  c #1DC433",
"P  c #1BCC33",
"I  c #20CD37",
"U  c #26C23A",
"Y  c #28C63D",
"T  c #25CC3A",
"R  c #2ACB3F",
"E  c #339C41",
"W  c #2FAF40",
"Q  c #37A245",
"!  c #33AB42",
"~  c #3CAE4B",
"^  c #2EB440",
"/  c #2FBE42",
"(  c #34B445",
")  c #35BA47",
"_  c #37B648",
"`  c #3CB34B",
"'  c #3BBA4C",
"]  c #41AD4F",
"[  c #40B04F",
"{  c #44AD52",
"}  c #48AD55",
"|  c #45B153",
" . c #44BC53",
".. c #4CBB5A",
"X. c #52B45E",
"o. c #51BD5F",
"O. c #54B661",
"+. c #54BA61",
"@. c #2CCC41",
"#. c #32C546",
"$. c #34CB46",
"%. c #3BC44E",
"&. c #34CB48",
"*. c #3CCB4E",
"=. c #2ED043",
"-. c #32D047",
";. c #35D04A",
":. c #39D14C",
">. c #3FC050",
",. c #3DCF50",
"<. c #3ED051",
"1. c #43C554",
"2. c #43CD55",
"3. c #48CD53",
"4. c #4CC45C",
"5. c #4BC95B",
"6. c #50C55F",
"7. c #52C561",
"8. c None",
/* pixels */
"8.8.8.8.8.8.8.8.8.8.8.8.8.8.8.8.8.8.8.8.8.8.8.8.8.8.8.8.8.8.8.8.8.8.8.8.8.8.8.8.8.8.8.8.8.8.8.8.8.8.8.8.8.8.8.8.8.8.8.8.8.8.8.8.",
"8.8.8.8.8.8.8.8.8.8.8.8.8.8.8.8.8.8.8.8.8.8.8.8.8.8.8.8.8.8.8.8.8.8.8.8.8.8.8.8.8.8.8.8.8.8.8.8.8.8.8.8.8.8.8.8.8.8.8.8.8.8.8.8.",
"8.8.8.8.8.8.8.8.8.8.8.8.8.8.8.8.8.8.8.8.8.8.8.8.8.8.8.8.8.8.8.8.8.8.8.8.8.8.8.8.8.8.8.8.8.8.8.8.r 8.8.8.8.8.8.8.8.8.8.8.8.8.8.8.",
"8.8.8.8.8.8.8.8.8.8.8.8.8.8.8.8.8.8.8.8.8.8.8.8.8.8.8.8.8.8.8.8.8.8.8.8.8.8.8.8.8.8.8.8.8.8.8._ q 8.8.8.8.8.8.8.8.8.8.8.8.8.8.8.",
"8.8.8.8.8.8.8.8.8.8.8.8.8.8.8.8.8.8.8.8.8.8.8.8.8.8.8.8.8.8.8.8.8.8.8.8.8.8.8.8.8.8.8.8.8.8.%.h & 8.8.8.8.8.8.8.8.8.8.8.8.8.8.8.",
"8.8.8.8.8.8.8.8.8.8.8.8.8.8.8.8.8.8.8.8.8.8.8.8.8.8.8.8.8.8.8.8.8.8.8.8.8.8.8.8.8.8.8.8.8._ T : 8.8.8.8.8.8.8.8.8.8.8.8.8.8.8.8.",
"8.8.8.8.8.8.8.8.8.8.8.8.8.8.8.8.8.8.8.8.8.8.8.8.8.8.8.8.8.8.8.8.8.8.8.8.8.8.8.8.8.8.8.E _ R g * 8.8.8.8.8.8.8.8.8.8.8.8.8.8.8.8.",
"8.8.8.t 8.8.8.8.8.8.8.8.8.8.8.8.8.8.8.8.8.8.8.8.8.8.8.8.8.8.8.8.8.8.8.8.8.8.8.8.8.8.Q ( @.J 7 * 8.8.8.8.8.8.8.8.8.8.8.8.8.8.8.8.",
"8.8.8.s x 8.8.8.8.8.8.8.8.8.8.8.8.8.8.8.8.8.8.8.8.8.8.8.8.8.8.8.8.8.8.8.8.8.8.8.8.` ' @.J B 7 * 8.8.8.8.8.8.8.8.8.8.8.8.8.8.8.8.",
"8.8.8.4 / 8.8.8.8.8.8.8.8.8.8.8.8.8.8.8.8.8.8.8.8.8.8.8.8.8.8.8.8.8.8.8.8.8.8.8.' >.Y J V B 7 ; 8.8.8.8.8.8.8.8.8.8.8.8.8.8.8.8.",
"8.8.8.= j #.8.8.8.8.8.8.8.8.8.8.8.8.8.8.8.8.8.8.8.8.8.8.8.8.8.8.8.8.8.8.8.8.8.` &.P S B B B 9 : 8.8.8.8.8.8.8.8.8.8.8.8.8.8.8.8.",
"8.8.8.# 3 U _ 8.8.8.8.8.8.8.8.8.8.8.8.8.8.8.8.8.8.8.8.8.8.8.8.8.8.8.8.8.8.|  .$.P A B B B B B : 8.8.8.8.8.8.8.8.8.8.8.8.8.8.8.8.",
"8.8.8.8.= Z Y ' | 8.8.8.8.8.8.8.8.8.8.8.8.8.8.8.8.8.8.8.8.8.8.8.8.8.8.8. .2.@.J B B B B B B 9 : 8.8.8.8.8.8.8.8.8.8.8.8.8.8.8.8.",
"8.8.8.8.& 2 J R 1.4.O.8.8.8.8.8.8.8.8.8.8.8.8.8.8.8.8.8.8.8.! o.8.O.7. .&.P S B B B B B B B 9 : 8.8.8.8.8.8.8.8.8.8.8.8.8.8.8.8.",
"8.8.8.8.@ : 9 S P -.2.5.7.8.8.8.8.8.8.8.8.8.8.8.8.8.8.8.8.8.l <.5.5.:.T J B B B B B B B B B B : 8.8.8.8.8.8.8.8.8.8.8.8.8.8.8.8.",
"8.8.8.8.8.& 2 B B S J T :.2.8.8.8.8.8.8.8.8.8.8.8.8.8.8.8.= 8 J J J S A B B B B B B B B B B B : 8.8.8.8.8.8.8.8.8.8.8.8.8.8.8.8.",
"8.8.8.8.8.# : 9 B B B B S R 3.4.8.8.8.8.8.8.8.8.8.8.8.8.8.; 8 V B B B B B B B B B B B B B B 9 : 8.8.8.8.8.8.8.8.8.8.8.8.8.8.8.8.",
"8.8.8.8.8.8.* 6 B B B B V V I :.1.8.8.8.8.8.8.8.8.8.8.8.8.: 9 B B B B B B B B B B B B B B B 9 ; 8.8.8.8.8.8.8.8.8.8.8.8.8.8.8.8.",
"8.8.8.8.8.8.# : 9 B B B B B V K *.2.8.8.8.8.8.8.8.8.8.8.8.: V B B B B B B B B B B B B B B B 9 ; 8.8.8.8.8.8.8.8.8.8.8.8.8.8.8.8.",
"8.8.8.8.8.8.O & 2 B B B B B B B J =.%.8.8.8.8.8.8.8.8.8.8.5 V B B B B B B B B B B B B B B B 6 * 8.8.8.8.8.8.8.8.8.8.8.8.8.8.8.8.",
"8.8.8.8.8.8.8.# : 9 B B B B B B B S T ( 8.8.8.8.8.8.8.8.8.5 V B B B B B B B B B B B B B B B 3 & 8.8.8.8.8.8.8.8.8.8.8.8.8.8.8.8.",
"8.8.8.8.8.8.8.8.& 2 B B B B B B B B F Y _ 8.8.8.8.8.8.8.> g V B B B B B B B B B B B B B B 7 = @ 8.8.8.8.8.8.8.8.8.8.8.8.8.8.8.8.",
"8.8.8.8.8.8.8.8.@ : 9 B B B B B B B V J Y ( 8.8.8.8.8.8.4 g V B B B B B B B B B B B B B 9 : # 8.8.8.8.8.8.8.8.8.8.8.8.8.8.8.8.8.",
"8.8.8.8.8.8.8.8.8.$ 2 B B B B B B B B C J @.) 8.8.8.8.8.i S B B B B B B B B B B B B B B 7 ; # 8.8.8.8.8.8.8.8.8.8.8.8.8.8.8.8.8.",
"8.8.8.8.8.8.8.8.8.@ ; 7 B B B B B B B B V J R #.8.8.8.w j F B B B B B B B B B B B B B B V p y 8.8.8.| r 8.8.8.8.8.8.8.8.8.8.8.8.",
"8.8.8.8.8.8.8.8.8.8.# 1 9 B B B B B B B B B J T ! 8.8.z G V B B B B B B B B B B B B B B S T 1.6.6.%.f & 8.8.8.8.8.8.8.8.8.8.8.8.",
"8.8.8.8.8.8.8.8.8.8.+ * 6 B B B B B B B B B V J #.{ | N F B B B B B B B B B B B B B B B V D I R L 4 # 8.8.8.8.8.8.8.8.8.8.8.8.8.",
"8.8.8.8.8.8.8.8.8.8.8.@ : 9 B B B B B B B B B A P &.#.P S B B B B B B B B B B B B B B B B B B 7 ; + 8.8.8.8.8.8.8.8.8.8.8.8.8.8.",
"8.8.8.8.8.8.8.8.8.8.8.@ ; 7 B B B B B B B B B B C F F S B B B B B B B B B B B B B B B B B 9 2 = @ 8.8.8.8.8.8.8.8.8.8.8.8.8.8.8.",
"8.8.8.8.8.8.8.8.8.8.8.t p V B B B B B B B B B B B B B B B B B B B B B B B B B B B B B B 9 2 & + 8.8.8.8.8.8.8.8.8.8.8.8.8.8.8.8.",
"8.8.8.8.8.8.X.O.+.7.7.1.U F B B B B B B B B B B B B B B B B B B B B B B B B B B B B B 9 3 & O 8.8.8.8.8.8.8.8.8.8.8.8.8.8.8.8.8.",
"8.8.8.X.o.6.4.3.,.-.@.T J C B B B B B B B B B B B B B B B B B B B B B B B B B B B B 9 1 $ o 8.8.8.8.8.8.8.8.8.8.8.8.8.8.8.8.8.8.",
"- z N #.&.@.P J F S V B B B B B B B B B B B B B B B B B B B B B B B B B B B B B 7 2 = @ o 8.8.8.8.8.8.8.8.8.8.8.8.8.8.8.8.8.8.8.",
"+ @ % = 5 7 B B B B B B B B B B B B B B B B B B B B B B B B B B B B B B B B 9 2 = # O X 8.8.8.8.8.8.8.8.8.8.8.8.8.8.8.8.8.8.8.8.",
"8.8.8.X @ * 3 9 B B B B B B B B B B B B B B B B B B B B B B B B B B B B B 9 : $ O X 8.8.8.8.8.8.8.8.8.8.8.8.8.8.8.8.8.8.8.8.8.8.",
"8.8.8.8.8.o @ * 1 9 B B B B B B B B B B B B B B B B B B B B B B B B B B B B ; O 8.8.8.8.8.8.8.8.8.8.8.8.8.8.8.8.8.8.8.8.8.8.8.8.",
"8.8.8.8.8.8.. o @ = 1 6 9 B B B B B B B B B B B B B B B B B B B B B B B B B 8 8.8.8.8.8.8.8.8.8.8.8.8.8.8.8.8.8.8.8.8.8.8.8.8.8.",
"8.8.8.8.8.8.8.8.. o @ & : 2 7 B B B B B B B B B B B B B B B B B B B B B B B L M 8.8.8.8.8.8.8.8.8.8.8.8.8.8.8.8.8.8.8.8.8.8.8.8.",
"8.8.8.8.8.8.8.8.8.8.. X + # * ; 1 6 7 7 6 6 6 9 B B B B B B B B B B B B B V G $.4.o.8.8.8.8.8.8.8.8.8.8.8.8.8.8.8.8.8.8.8.8.8.8.",
"8.8.8.8.8.8.8.8.8.8.8.8.8.. o + @ # $ & $ % * 1 B B B B B B B B B B B B B B V G T <.4.6.o.8.8.8.8.8.8.8.8.8.8.8.8.8.8.8.8.8.8.8.",
"8.8.8.8.8.8.8.8.8.8.8.8.8.8.8.8.  . X X X o @ ; 6 9 B B B B B B B B B B B B B B V F I -.3.4.} 8.8.8.8.8.8.8.8.8.8.8.8.8.8.8.8.8.",
"8.8.8.8.8.8.8.8.8.8.8.8.8.8.8.8.8.8.8.8.8.8.- ; * 3 9 B B B B B B B B B B B B B B B V S J -.1.....8.8.8.8.8.8.8.8.8.8.8.8.8.8.8.",
"8.8.8.8.8.8.8.8.8.8.8.8.8.8.8.8.8.8.8.8.8.e 4 # o & 2 B B B B B B B B B B B B B B B B B V V K =.3.4.8.8.8.8.8.8.8.8.8.8.8.8.8.8.",
"8.8.8.8.8.8.8.8.8.8.8.8.8.8.8.8.8.8.8.8.8.d * 8.8.@ 1 B B B B B B B B B B B B B B B B B B B V V P -.1.] 8.8.8.8.8.8.8.8.8.8.8.8.",
"8.8.8.8.8.8.8.8.8.8.8.8.8.8.8.8.8.8.8.t k = O 8.8.+ = 7 B B B B B B B B B B B B B B B B B B B B B F T 2.4.8.8.8.8.8.8.8.8.8.8.8.",
"8.8.8.8.8.8.8.8.8.8.8.8.8.8.8.8.8.8.t f > O 8.8.8.8.$ 3 B B B B B B B B B B B B B B B B B B B B B B A P :.3.8.8.8.8.8.8.8.8.8.8.",
"8.8.8.8.8.8.8.8.8.8.8.8.8.8.8.8.8.b f - O 8.8.8.8.8.@ = 7 B B B B B B B B B B B B B B B B B B B B B B B S R 2.8.8.8.8.8.8.8.8.8.",
"8.8.8.8.8.8.8.8.8.8.8.8.8.8.8.8.! s - O 8.8.8.8.8.8.8.& 1 B B B B B B B B B B B B B B B B B B B B B B B B V I $.8.8.8.8.8.8.8.8.",
"8.8.8.8.8.8.8.8.8.8.8.8.8.8.8.( d & o 8.8.8.8.8.8.8.8.@ ; 9 B B B B B B B B B B B B B B B B B B B B B B B B S P M 8.8.8.8.8.8.8.",
"8.8.8.8.8.8.8.8.8.8.8.8.8.8.v i # o 8.8.8.8.8.8.8.8.8.8.& 2 B B B B B B 7 2 2 7 B B B B B B B B B B B B B B B F U n 8.8.8.8.8.8.",
"8.8.8.8.8.8.8.8.8.8.8.8.~ M < @ 8.8.8.8.8.8.8.8.8.8.8.8.@ : 7 B B B B 9 ; $ # * : 2 7 9 9 B B B B B B B B B B V K #.` 8.8.8.8.8.",
"8.8.8.8.8.8.8.8.8.8.8._ f * O 8.8.8.8.8.8.8.8.8.8.8.8.8.8.* 6 B B B B 9 * o . o + @ & = ; : 3 2 6 7 7 7 7 7 7 6 7 g U M ! 8.8.8.",
"8.8.8.8.8.8.8.8.8.{ M p # o 8.8.8.8.8.8.8.8.8.8.8.8.8.8.8.# : B B B B 7 = 8.8.8.8.. X O O + @ @ # $ $ $ & % % $ % % & * - , 8.8.",
"8.8.8.8.8.8.8.{ ' m - + . 8.8.8.8.8.8.8.8.8.8.8.8.8.8.8.8.+ = 7 B B B 6 = 8.8.8.8.8.8.8.8.8.  . . X . X X X X X . . . . X 8.8.8.",
"8.8.8.8.8.{  .M 0 $ o 8.8.8.8.8.8.8.8.8.8.8.8.8.8.8.8.8.8.8.# : 9 B B 2 & 8.8.8.8.8.8.8.8.8.8.8.8.8.8.8.8.8.8.8.8.8.8.8.8.8.8.8.",
"8.8.8.~  .N a * O . 8.8.8.8.8.8.8.8.8.8.8.8.8.8.8.8.8.8.8.8.+ * 6 B B 2 & 8.8.8.8.8.8.8.8.8.8.8.8.8.8.8.8.8.8.8.8.8.8.8.8.8.8.8.",
"8.8.8.h j * O X 8.8.8.8.8.8.8.8.8.8.8.8.8.8.8.8.8.8.8.8.8.8.8.# : B B 1 $ 8.8.8.8.8.8.8.8.8.8.8.8.8.8.8.8.8.8.8.8.8.8.8.8.8.8.8.",
"8.8.& ; & O 8.8.8.8.8.8.8.8.8.8.8.8.8.8.8.8.8.8.8.8.8.8.8.8.8.+ = 6 9 : $ 8.8.8.8.8.8.8.8.8.8.8.8.8.8.8.8.8.8.8.8.8.8.8.8.8.8.8.",
"8.8.8.+ O 8.8.8.8.8.8.8.8.8.8.8.8.8.8.8.8.8.8.8.8.8.8.8.8.8.8.8.$ 1 6 = 8.8.8.8.8.8.8.8.8.8.8.8.8.8.8.8.8.8.8.8.8.8.8.8.8.8.8.8.",
"8.8.8.8.8.8.8.8.8.8.8.8.8.8.8.8.8.8.8.8.8.8.8.8.8.8.8.8.8.8.8.8.+ = 1 % 8.8.8.8.8.8.8.8.8.8.8.8.8.8.8.8.8.8.8.8.8.8.8.8.8.8.8.8.",
"8.8.8.8.8.8.8.8.8.8.8.8.8.8.8.8.8.8.8.8.8.8.8.8.8.8.8.8.8.8.8.8.8.$ = $ 8.8.8.8.8.8.8.8.8.8.8.8.8.8.8.8.8.8.8.8.8.8.8.8.8.8.8.8.",
"8.8.8.8.8.8.8.8.8.8.8.8.8.8.8.8.8.8.8.8.8.8.8.8.8.8.8.8.8.8.8.8.8.O @ 8.8.8.8.8.8.8.8.8.8.8.8.8.8.8.8.8.8.8.8.8.8.8.8.8.8.8.8.8.",
"8.8.8.8.8.8.8.8.8.8.8.8.8.8.8.8.8.8.8.8.8.8.8.8.8.8.8.8.8.8.8.8.8.8.X 8.8.8.8.8.8.8.8.8.8.8.8.8.8.8.8.8.8.8.8.8.8.8.8.8.8.8.8.8.",
"8.8.8.8.8.8.8.8.8.8.8.8.8.8.8.8.8.8.8.8.8.8.8.8.8.8.8.8.8.8.8.8.8.8.8.8.8.8.8.8.8.8.8.8.8.8.8.8.8.8.8.8.8.8.8.8.8.8.8.8.8.8.8.8."
};
